
<svg xmlns="http://www.w3.org/2000/svg" viewBox="0 0 150 150"><circle cx="75" cy="75" r="64" fill="#eec74a"/><path fill="#d4d5db" d="M41.217 55.903h67.562v40.474H41.217z"/><path fill="#e0e5e8" d="M112.498 100h-75l37.5-26.256z"/><path fill="#e56354" d="M112.502 51.819v46.358c0 1.01-.9 1.82-2 1.82h-5.44V50h5.44c.54 0 1.02.2 1.38.51.38.327.62.8.62 1.309z"/><path fill="#e56354" d="m111.882 50.51-6.82 5.684-27.94 23.247c-1.17 1.064-3.07 1.064-4.24 0l-27.95-23.256-6.82-5.676a2.16 2.16 0 0 1 1.39-.509h71c.54 0 1.02.2 1.38.51z"/><path fill="#ebeff2" d="M45.572 50.004h58.852l-27.27 22.908c-1.18 1.109-3.133 1.109-4.312 0l-27.27-22.908z"/><path fill="#e56354" d="M44.932 50v49.997h-5.43c-1.11 0-2-.81-2-1.82V51.82c0-.51.23-.982.61-1.31a2.16 2.16 0 0 1 1.39-.509h5.43z"/></svg>